<?xml version="1.0" standalone="no"?>
<!DOCTYPE svg PUBLIC "-//W3C//DTD SVG 20010904//EN"
 "http://www.w3.org/TR/2001/REC-SVG-20010904/DTD/svg10.dtd">
<svg version="1.0" xmlns="http://www.w3.org/2000/svg"
 width="771.000000pt" height="771.000000pt" viewBox="0 0 771.000000 771.000000"
 preserveAspectRatio="xMidYMid meet">
<metadata>
Created by potrace 1.14, written by Peter Selinger 2001-2017
</metadata>
<g transform="translate(0.000000,771.000000) scale(0.100000,-0.100000)"
fill="#000000" stroke="none">
<path d="M3629 7706 c-2 -2 -44 -7 -93 -10 -234 -17 -454 -58 -796 -150 -42
-11 -216 -72 -295 -103 -320 -126 -644 -308 -920 -517 -193 -146 -409 -347
-556 -517 -30 -34 -61 -70 -70 -79 -33 -35 -178 -229 -239 -320 -34 -52 -70
-106 -80 -120 -9 -14 -32 -52 -50 -85 -18 -33 -41 -73 -51 -90 -25 -43 -123
-239 -154 -310 -88 -200 -205 -557 -230 -704 -3 -19 -7 -37 -9 -40 -2 -3 -7
-22 -10 -41 -3 -19 -8 -47 -11 -62 -13 -70 -16 -87 -25 -148 -28 -194 -35
-306 -35 -560 0 -257 13 -437 40 -580 2 -14 6 -41 9 -60 3 -19 12 -67 20 -105
8 -39 17 -83 20 -97 21 -120 137 -487 186 -593 5 -11 21 -49 36 -85 39 -97
156 -327 219 -431 30 -51 55 -96 55 -101 0 -4 5 -8 10 -8 6 0 10 -5 10 -11 0
-12 108 -170 177 -259 422 -545 945 -951 1566 -1214 216 -91 507 -185 659
-211 17 -3 34 -7 37 -9 3 -2 22 -7 41 -10 19 -3 46 -8 60 -10 85 -16 151 -26
190 -31 25 -3 56 -8 70 -10 170 -27 725 -27 880 0 14 2 43 6 65 9 96 11 147
20 280 47 77 16 147 31 155 33 204 51 422 127 622 216 106 47 163 75 339 169
85 45 331 206 433 284 529 403 944 933 1210 1546 116 266 224 632 260 876 4
23 9 52 11 65 3 14 8 48 11 75 3 28 7 61 10 75 26 159 25 742 -1 880 -1 8 -6
38 -9 65 -7 52 -31 197 -41 250 -27 141 -116 455 -155 550 -4 11 -18 47 -30
80 -23 61 -30 80 -73 175 -34 76 -122 254 -159 320 -67 120 -231 370 -295 450
-7 8 -26 33 -43 55 -204 260 -517 560 -765 733 -33 23 -78 54 -100 70 -323
226 -766 426 -1190 537 -148 39 -133 36 -385 80 -14 3 -65 10 -115 15 -49 6
-103 13 -120 16 -36 6 -570 15 -576 10z"/>
</g>
</svg>
